<mxfile host="Electron" agent="Mozilla/5.0 (Windows NT 10.0; Win64; x64) AppleWebKit/537.36 (KHTML, like Gecko) draw.io/27.0.9 Chrome/134.0.6998.205 Electron/35.4.0 Safari/537.36" version="27.0.9">
  <diagram name="Page-1" id="QQTqfzPgmSSi4tpSWCfn">
    <mxGraphModel dx="760" dy="595" grid="1" gridSize="10" guides="1" tooltips="1" connect="1" arrows="1" fold="1" page="1" pageScale="1" pageWidth="850" pageHeight="1100" math="0" shadow="0">
      <root>
        <mxCell id="0" />
        <mxCell id="1" parent="0" />
        <mxCell id="sxxJFvXYnQKyj-S9rKtp-1" value="&lt;font style=&quot;font-size: 24px;&quot;&gt;&lt;b&gt;high level Architrecture&lt;/b&gt;&lt;/font&gt;" style="text;html=1;align=center;verticalAlign=middle;whiteSpace=wrap;rounded=0;" vertex="1" parent="1">
          <mxGeometry x="80" y="50" width="260" height="60" as="geometry" />
        </mxCell>
        <mxCell id="sxxJFvXYnQKyj-S9rKtp-2" value="&lt;div&gt;&lt;br&gt;&lt;/div&gt;&lt;div&gt;&lt;br&gt;&lt;/div&gt;&lt;div&gt;&lt;br&gt;&lt;/div&gt;&lt;div&gt;&lt;br&gt;&lt;/div&gt;&lt;div&gt;&lt;br&gt;&lt;/div&gt;&lt;div&gt;&lt;br&gt;&lt;/div&gt;&lt;div&gt;&lt;br&gt;&lt;/div&gt;&lt;div&gt;&lt;br&gt;&lt;/div&gt;&lt;div&gt;&lt;br&gt;&lt;/div&gt;&lt;div&gt;&lt;br&gt;&lt;/div&gt;&lt;div&gt;&lt;br&gt;&lt;/div&gt;&lt;div&gt;&lt;font style=&quot;font-size: 8px;&quot;&gt;&lt;b&gt;OBJECT TYPE: CSV FILE&lt;/b&gt;&lt;/font&gt;&lt;/div&gt;&lt;div&gt;&lt;font style=&quot;font-size: 8px;&quot;&gt;&lt;b&gt;INTERFACE : FILES IN FOLDERS&lt;/b&gt;&lt;/font&gt;&lt;/div&gt;" style="rounded=0;whiteSpace=wrap;html=1;fillColor=none;strokeColor=default;dashed=1;" vertex="1" parent="1">
          <mxGeometry x="32.94" y="160" width="120" height="470" as="geometry" />
        </mxCell>
        <mxCell id="sxxJFvXYnQKyj-S9rKtp-3" value="&lt;h4&gt;sources&lt;/h4&gt;" style="rounded=0;whiteSpace=wrap;html=1;align=left;strokeColor=none;dashed=1;fontSize=20;" vertex="1" parent="1">
          <mxGeometry x="50" y="140" width="50" height="20" as="geometry" />
        </mxCell>
        <mxCell id="sxxJFvXYnQKyj-S9rKtp-4" value="" style="rounded=0;whiteSpace=wrap;html=1;fillColor=none;strokeColor=default;dashed=1;" vertex="1" parent="1">
          <mxGeometry x="190" y="155" width="370" height="475" as="geometry" />
        </mxCell>
        <mxCell id="sxxJFvXYnQKyj-S9rKtp-6" value="&lt;h4&gt;Data Warehouse&lt;/h4&gt;" style="rounded=0;whiteSpace=wrap;html=1;align=left;strokeColor=none;dashed=1;fontSize=20;" vertex="1" parent="1">
          <mxGeometry x="280" y="140" width="160" height="20" as="geometry" />
        </mxCell>
        <mxCell id="sxxJFvXYnQKyj-S9rKtp-7" value="&lt;div&gt;&lt;b&gt;&lt;br&gt;&lt;/b&gt;&lt;/div&gt;&lt;div&gt;&lt;b&gt;&lt;br&gt;&lt;/b&gt;&lt;/div&gt;&lt;div&gt;&lt;b&gt;&lt;br&gt;&lt;/b&gt;&lt;/div&gt;&lt;div&gt;&lt;b&gt;&lt;br&gt;&lt;/b&gt;&lt;/div&gt;&lt;div&gt;&lt;b&gt;Machinre learning&lt;/b&gt;&lt;/div&gt;" style="rounded=0;whiteSpace=wrap;html=1;fillColor=none;strokeColor=default;dashed=1;" vertex="1" parent="1">
          <mxGeometry x="600" y="160" width="120" height="470" as="geometry" />
        </mxCell>
        <mxCell id="sxxJFvXYnQKyj-S9rKtp-8" value="&lt;h4&gt;Consume&lt;/h4&gt;" style="rounded=0;whiteSpace=wrap;html=1;align=left;strokeColor=none;dashed=1;fontSize=20;" vertex="1" parent="1">
          <mxGeometry x="610" y="140" width="100" height="20" as="geometry" />
        </mxCell>
        <mxCell id="sxxJFvXYnQKyj-S9rKtp-10" value="Bronze" style="rounded=0;whiteSpace=wrap;html=1;fillColor=#ffe6cc;strokeColor=#d79b00;" vertex="1" parent="1">
          <mxGeometry x="210" y="180" width="100" height="20" as="geometry" />
        </mxCell>
        <mxCell id="sxxJFvXYnQKyj-S9rKtp-12" value="Silver" style="rounded=0;whiteSpace=wrap;html=1;fillColor=#f5f5f5;strokeColor=#666666;fontColor=#333333;" vertex="1" parent="1">
          <mxGeometry x="320" y="180" width="90" height="20" as="geometry" />
        </mxCell>
        <mxCell id="sxxJFvXYnQKyj-S9rKtp-13" value="Gold" style="rounded=0;whiteSpace=wrap;html=1;fillColor=#fff2cc;strokeColor=#d6b656;" vertex="1" parent="1">
          <mxGeometry x="425" y="180" width="110" height="20" as="geometry" />
        </mxCell>
        <mxCell id="sxxJFvXYnQKyj-S9rKtp-14" value="&lt;div&gt;&lt;font style=&quot;font-size: 10px;&quot;&gt;&lt;b style=&quot;&quot;&gt;&lt;br&gt;&lt;/b&gt;&lt;/font&gt;&lt;/div&gt;&lt;div&gt;&lt;font style=&quot;font-size: 10px;&quot;&gt;&lt;b style=&quot;&quot;&gt;&lt;br&gt;&lt;/b&gt;&lt;/font&gt;&lt;/div&gt;&lt;div&gt;&lt;font style=&quot;font-size: 10px;&quot;&gt;&lt;b style=&quot;&quot;&gt;OBJECT TYPE: Tables&lt;/b&gt;&lt;/font&gt;&lt;/div&gt;&lt;div&gt;&lt;font style=&quot;font-size: 10px;&quot;&gt;&lt;b&gt;load:batch processing&lt;/b&gt;&lt;/font&gt;&lt;/div&gt;&lt;div&gt;&lt;font style=&quot;font-size: 10px;&quot;&gt;&lt;b&gt;full load&lt;/b&gt;&lt;/font&gt;&lt;/div&gt;&lt;div&gt;&lt;font style=&quot;font-size: 10px;&quot;&gt;&lt;b&gt;truncate and insert&lt;/b&gt;&lt;/font&gt;&lt;/div&gt;&lt;div&gt;&lt;br&gt;&lt;/div&gt;&lt;div&gt;&lt;br&gt;&lt;/div&gt;&lt;div&gt;&lt;b style=&quot;&quot;&gt;&lt;font style=&quot;font-size: 10px;&quot;&gt;no transformation&lt;/font&gt;&lt;/b&gt;&lt;/div&gt;&lt;div&gt;&lt;b style=&quot;&quot;&gt;&lt;font style=&quot;font-size: 10px;&quot;&gt;data model : none as is&amp;nbsp;&lt;/font&gt;&lt;/b&gt;&lt;/div&gt;" style="rounded=0;whiteSpace=wrap;html=1;fillColor=none;strokeColor=#d79b00;" vertex="1" parent="1">
          <mxGeometry x="200" y="210" width="100" height="400" as="geometry" />
        </mxCell>
        <mxCell id="sxxJFvXYnQKyj-S9rKtp-17" value="&lt;div&gt;&lt;b&gt;&lt;br&gt;&lt;/b&gt;&lt;/div&gt;&lt;b&gt;&lt;div&gt;&lt;b&gt;&lt;br&gt;&lt;/b&gt;&lt;/div&gt;&lt;div&gt;&lt;b&gt;&lt;br&gt;&lt;/b&gt;&lt;/div&gt;&lt;div&gt;&lt;b&gt;&lt;br&gt;&lt;/b&gt;&lt;/div&gt;&lt;div&gt;&lt;b&gt;&lt;br&gt;&lt;/b&gt;&lt;/div&gt;&lt;div&gt;&lt;b&gt;&lt;br&gt;&lt;/b&gt;&lt;/div&gt;&lt;div&gt;&lt;b&gt;&lt;br&gt;&lt;/b&gt;&lt;/div&gt;&lt;div&gt;&lt;b&gt;&lt;br&gt;&lt;/b&gt;&lt;/div&gt;&lt;div&gt;&lt;b&gt;&lt;br&gt;&lt;/b&gt;&lt;/div&gt;OBJECT TYPE:&lt;/b&gt; VIEWS&lt;div&gt;&lt;br&gt;&lt;/div&gt;&lt;div&gt;no load&lt;/div&gt;&lt;div&gt;&lt;br&gt;&lt;/div&gt;&lt;div&gt;&lt;b&gt;Transformation:&lt;/b&gt;&lt;/div&gt;&lt;div&gt;Data integeration&lt;/div&gt;&lt;div&gt;Aggregation&lt;/div&gt;&lt;div&gt;Buisness logic&lt;/div&gt;&lt;div&gt;&lt;br&gt;&lt;/div&gt;&lt;div&gt;&lt;br&gt;&lt;/div&gt;&lt;div&gt;&lt;br&gt;&lt;/div&gt;&lt;div&gt;&lt;br&gt;&lt;/div&gt;&lt;div&gt;&lt;b&gt;data model&lt;/b&gt;:&lt;/div&gt;&lt;div&gt;star schema&lt;/div&gt;&lt;div&gt;flat table&lt;/div&gt;&lt;div&gt;Aggregated table&lt;/div&gt;" style="rounded=0;whiteSpace=wrap;html=1;fillColor=none;strokeColor=#d6b656;" vertex="1" parent="1">
          <mxGeometry x="425" y="210" width="110" height="400" as="geometry" />
        </mxCell>
        <mxCell id="sxxJFvXYnQKyj-S9rKtp-18" value="" style="image;aspect=fixed;html=1;points=[];align=center;fontSize=12;image=img/lib/azure2/general/Folder_Blank.svg;" vertex="1" parent="1">
          <mxGeometry x="63" y="250" width="37" height="30.03" as="geometry" />
        </mxCell>
        <mxCell id="sxxJFvXYnQKyj-S9rKtp-19" value="" style="sketch=0;html=1;aspect=fixed;strokeColor=none;shadow=0;fillColor=#3B8DF1;verticalAlign=top;labelPosition=center;verticalLabelPosition=bottom;shape=mxgraph.gcp2.folders" vertex="1" parent="1">
          <mxGeometry x="80" y="270" width="25.88" height="22" as="geometry" />
        </mxCell>
        <mxCell id="sxxJFvXYnQKyj-S9rKtp-20" value="" style="image;aspect=fixed;html=1;points=[];align=center;fontSize=12;image=img/lib/azure2/general/Folder_Blank.svg;" vertex="1" parent="1">
          <mxGeometry x="63" y="340" width="40" height="32.46" as="geometry" />
        </mxCell>
        <mxCell id="sxxJFvXYnQKyj-S9rKtp-21" value="" style="sketch=0;html=1;aspect=fixed;strokeColor=none;shadow=0;fillColor=#3B8DF1;verticalAlign=top;labelPosition=center;verticalLabelPosition=bottom;shape=mxgraph.gcp2.folders" vertex="1" parent="1">
          <mxGeometry x="90" y="360" width="30" height="25.5" as="geometry" />
        </mxCell>
        <mxCell id="sxxJFvXYnQKyj-S9rKtp-22" value="&lt;b&gt;ERP&lt;/b&gt;" style="text;strokeColor=none;align=center;fillColor=none;html=1;verticalAlign=middle;whiteSpace=wrap;rounded=0;" vertex="1" parent="1">
          <mxGeometry x="43" y="372.46" width="60" height="30" as="geometry" />
        </mxCell>
        <mxCell id="sxxJFvXYnQKyj-S9rKtp-23" value="&lt;b&gt;CRM&lt;/b&gt;" style="text;strokeColor=none;align=center;fillColor=none;html=1;verticalAlign=middle;whiteSpace=wrap;rounded=0;" vertex="1" parent="1">
          <mxGeometry x="43" y="280.03" width="60" height="30" as="geometry" />
        </mxCell>
        <mxCell id="sxxJFvXYnQKyj-S9rKtp-24" value="" style="html=1;verticalLabelPosition=bottom;align=center;labelBackgroundColor=#ffffff;verticalAlign=top;strokeWidth=2;strokeColor=#d79b00;shadow=0;dashed=0;shape=mxgraph.ios7.icons.data;fillColor=#ffe6cc;" vertex="1" parent="1">
          <mxGeometry x="240" y="230" width="40" height="60" as="geometry" />
        </mxCell>
        <mxCell id="sxxJFvXYnQKyj-S9rKtp-25" value="" style="html=1;verticalLabelPosition=bottom;align=center;labelBackgroundColor=#ffffff;verticalAlign=top;strokeWidth=2;strokeColor=#666666;shadow=0;dashed=0;shape=mxgraph.ios7.icons.data;fillColor=#f5f5f5;fontColor=#333333;" vertex="1" parent="1">
          <mxGeometry x="341.5" y="225" width="38.5" height="55" as="geometry" />
        </mxCell>
        <mxCell id="sxxJFvXYnQKyj-S9rKtp-26" value="" style="html=1;verticalLabelPosition=bottom;align=center;labelBackgroundColor=#ffffff;verticalAlign=top;strokeWidth=2;strokeColor=#d6b656;shadow=0;dashed=0;shape=mxgraph.ios7.icons.data;fillColor=#fff2cc;" vertex="1" parent="1">
          <mxGeometry x="468" y="230" width="42" height="60" as="geometry" />
        </mxCell>
        <mxCell id="sxxJFvXYnQKyj-S9rKtp-27" value="" style="shape=singleArrow;whiteSpace=wrap;html=1;fillColor=#f8cecc;strokeColor=#b85450;arrowWidth=0.15999959309895834;arrowSize=0.41800020345052263;" vertex="1" parent="1">
          <mxGeometry x="160" y="310.03" width="30" height="30" as="geometry" />
        </mxCell>
        <mxCell id="sxxJFvXYnQKyj-S9rKtp-28" value="" style="shape=singleArrow;whiteSpace=wrap;html=1;fillColor=#f8cecc;strokeColor=#b85450;" vertex="1" parent="1">
          <mxGeometry x="570" y="310" width="30" height="30" as="geometry" />
        </mxCell>
        <mxCell id="sxxJFvXYnQKyj-S9rKtp-29" value="" style="shape=singleArrow;whiteSpace=wrap;html=1;fillColor=#f8cecc;strokeColor=#b85450;" vertex="1" parent="1">
          <mxGeometry x="300" y="310" width="30" height="30" as="geometry" />
        </mxCell>
        <mxCell id="sxxJFvXYnQKyj-S9rKtp-30" value="" style="shape=singleArrow;whiteSpace=wrap;html=1;fillColor=#f8cecc;strokeColor=#b85450;" vertex="1" parent="1">
          <mxGeometry x="410" y="310" width="30" height="30" as="geometry" />
        </mxCell>
        <mxCell id="sxxJFvXYnQKyj-S9rKtp-31" value="Raw data" style="text;strokeColor=none;align=center;fillColor=none;html=1;verticalAlign=middle;whiteSpace=wrap;rounded=0;" vertex="1" parent="1">
          <mxGeometry x="222" y="290" width="60" height="30" as="geometry" />
        </mxCell>
        <mxCell id="sxxJFvXYnQKyj-S9rKtp-32" value="cleaned data, standardized" style="text;strokeColor=none;align=center;fillColor=none;html=1;verticalAlign=middle;whiteSpace=wrap;rounded=0;" vertex="1" parent="1">
          <mxGeometry x="335" y="290" width="60" height="30" as="geometry" />
        </mxCell>
        <mxCell id="sxxJFvXYnQKyj-S9rKtp-33" value="Buisness ready data" style="text;strokeColor=none;align=center;fillColor=none;html=1;verticalAlign=middle;whiteSpace=wrap;rounded=0;" vertex="1" parent="1">
          <mxGeometry x="459" y="300" width="60" height="30" as="geometry" />
        </mxCell>
        <mxCell id="sxxJFvXYnQKyj-S9rKtp-34" value="" style="shape=link;html=1;rounded=0;fillColor=#ffe6cc;strokeColor=#d79b00;" edge="1" parent="1">
          <mxGeometry width="100" relative="1" as="geometry">
            <mxPoint x="200" y="330" as="sourcePoint" />
            <mxPoint x="300" y="330" as="targetPoint" />
          </mxGeometry>
        </mxCell>
        <mxCell id="sxxJFvXYnQKyj-S9rKtp-35" value="" style="shape=link;html=1;rounded=0;fillColor=#f5f5f5;strokeColor=#666666;width=-2;" edge="1" parent="1" source="sxxJFvXYnQKyj-S9rKtp-16">
          <mxGeometry width="100" relative="1" as="geometry">
            <mxPoint x="320" y="340.03" as="sourcePoint" />
            <mxPoint x="420" y="340.03" as="targetPoint" />
          </mxGeometry>
        </mxCell>
        <mxCell id="sxxJFvXYnQKyj-S9rKtp-36" value="" style="shape=link;html=1;rounded=0;fillColor=#f5f5f5;strokeColor=#666666;width=-2;" edge="1" parent="1" target="sxxJFvXYnQKyj-S9rKtp-16">
          <mxGeometry width="100" relative="1" as="geometry">
            <mxPoint x="320" y="340.03" as="sourcePoint" />
            <mxPoint x="420" y="340.03" as="targetPoint" />
          </mxGeometry>
        </mxCell>
        <mxCell id="sxxJFvXYnQKyj-S9rKtp-16" value="&lt;br&gt;&lt;div style=&quot;forced-color-adjust: none;&quot;&gt;&lt;font style=&quot;forced-color-adjust: none; font-size: 10px;&quot;&gt;&lt;b style=&quot;forced-color-adjust: none;&quot;&gt;&lt;br&gt;&lt;/b&gt;&lt;/font&gt;&lt;/div&gt;&lt;div style=&quot;forced-color-adjust: none;&quot;&gt;&lt;font style=&quot;forced-color-adjust: none; font-size: 10px;&quot;&gt;&lt;b style=&quot;forced-color-adjust: none;&quot;&gt;&lt;br&gt;&lt;/b&gt;&lt;/font&gt;&lt;/div&gt;&lt;div style=&quot;forced-color-adjust: none;&quot;&gt;&lt;font style=&quot;forced-color-adjust: none; font-size: 10px;&quot;&gt;&lt;b style=&quot;forced-color-adjust: none;&quot;&gt;&lt;br&gt;&lt;/b&gt;&lt;/font&gt;&lt;/div&gt;&lt;div style=&quot;forced-color-adjust: none;&quot;&gt;&lt;font style=&quot;forced-color-adjust: none; font-size: 10px;&quot;&gt;&lt;b style=&quot;forced-color-adjust: none;&quot;&gt;&lt;br&gt;&lt;/b&gt;&lt;/font&gt;&lt;/div&gt;&lt;div style=&quot;forced-color-adjust: none;&quot;&gt;&lt;font style=&quot;forced-color-adjust: none; font-size: 10px;&quot;&gt;&lt;b style=&quot;forced-color-adjust: none;&quot;&gt;&lt;br&gt;&lt;/b&gt;&lt;/font&gt;&lt;/div&gt;&lt;div style=&quot;forced-color-adjust: none;&quot;&gt;&lt;font style=&quot;forced-color-adjust: none; font-size: 10px;&quot;&gt;&lt;b style=&quot;forced-color-adjust: none;&quot;&gt;&lt;br&gt;&lt;/b&gt;&lt;/font&gt;&lt;/div&gt;&lt;div style=&quot;forced-color-adjust: none;&quot;&gt;&lt;font style=&quot;forced-color-adjust: none; font-size: 10px;&quot;&gt;&lt;b style=&quot;forced-color-adjust: none;&quot;&gt;&lt;br&gt;&lt;/b&gt;&lt;/font&gt;&lt;/div&gt;&lt;div style=&quot;forced-color-adjust: none;&quot;&gt;&lt;font style=&quot;forced-color-adjust: none; font-size: 10px;&quot;&gt;&lt;b style=&quot;forced-color-adjust: none;&quot;&gt;&lt;br&gt;&lt;/b&gt;&lt;/font&gt;&lt;/div&gt;&lt;div style=&quot;forced-color-adjust: none;&quot;&gt;&lt;font style=&quot;forced-color-adjust: none; font-size: 10px;&quot;&gt;&lt;b style=&quot;forced-color-adjust: none;&quot;&gt;&lt;br&gt;&lt;/b&gt;&lt;/font&gt;&lt;/div&gt;&lt;div style=&quot;forced-color-adjust: none;&quot;&gt;&lt;font style=&quot;forced-color-adjust: none; font-size: 10px;&quot;&gt;&lt;b style=&quot;forced-color-adjust: none;&quot;&gt;&lt;br&gt;&lt;/b&gt;&lt;/font&gt;&lt;/div&gt;&lt;div style=&quot;forced-color-adjust: none;&quot;&gt;&lt;font style=&quot;forced-color-adjust: none; font-size: 10px;&quot;&gt;&lt;b style=&quot;forced-color-adjust: none;&quot;&gt;&lt;br&gt;&lt;/b&gt;&lt;/font&gt;&lt;/div&gt;&lt;div style=&quot;forced-color-adjust: none;&quot;&gt;&lt;font style=&quot;forced-color-adjust: none; font-size: 10px;&quot;&gt;&lt;b style=&quot;forced-color-adjust: none;&quot;&gt;&lt;br&gt;&lt;/b&gt;&lt;/font&gt;&lt;/div&gt;&lt;div style=&quot;forced-color-adjust: none;&quot;&gt;&lt;font style=&quot;forced-color-adjust: none; font-size: 10px;&quot;&gt;&lt;span style=&quot;forced-color-adjust: none;&quot;&gt;&lt;b&gt;OBJECT TYPE:&lt;/b&gt;&lt;/span&gt;&lt;b style=&quot;forced-color-adjust: none;&quot;&gt; Tables&lt;/b&gt;&lt;/font&gt;&lt;/div&gt;&lt;div style=&quot;forced-color-adjust: none;&quot;&gt;&lt;font style=&quot;forced-color-adjust: none; font-size: 10px;&quot;&gt;&lt;b style=&quot;forced-color-adjust: none;&quot;&gt;load:batch processing&lt;/b&gt;&lt;/font&gt;&lt;/div&gt;&lt;div style=&quot;forced-color-adjust: none;&quot;&gt;&lt;font style=&quot;forced-color-adjust: none; font-size: 10px;&quot;&gt;&lt;b style=&quot;forced-color-adjust: none;&quot;&gt;full load&lt;/b&gt;&lt;/font&gt;&lt;/div&gt;&lt;div style=&quot;forced-color-adjust: none;&quot;&gt;&lt;font style=&quot;forced-color-adjust: none; font-size: 10px;&quot;&gt;&lt;b style=&quot;forced-color-adjust: none;&quot;&gt;truncate and insert&lt;/b&gt;&lt;/font&gt;&lt;/div&gt;&lt;div style=&quot;forced-color-adjust: none;&quot;&gt;&lt;font style=&quot;forced-color-adjust: none; font-size: 10px;&quot;&gt;&lt;b style=&quot;forced-color-adjust: none;&quot;&gt;&lt;br&gt;&lt;/b&gt;&lt;/font&gt;&lt;/div&gt;&lt;div style=&quot;forced-color-adjust: none;&quot;&gt;&lt;font style=&quot;forced-color-adjust: none; font-size: 10px;&quot;&gt;&lt;b style=&quot;forced-color-adjust: none;&quot;&gt;&lt;br&gt;&lt;/b&gt;&lt;/font&gt;&lt;/div&gt;&lt;div style=&quot;forced-color-adjust: none;&quot;&gt;&lt;b&gt;Transformation:&lt;/b&gt;&lt;/div&gt;&lt;div style=&quot;forced-color-adjust: none;&quot;&gt;Data cleansing&lt;/div&gt;&lt;div style=&quot;forced-color-adjust: none;&quot;&gt;Data standrization&lt;/div&gt;&lt;div style=&quot;forced-color-adjust: none;&quot;&gt;Data normalization&lt;/div&gt;&lt;div style=&quot;forced-color-adjust: none;&quot;&gt;Derived columns&lt;/div&gt;&lt;div style=&quot;forced-color-adjust: none;&quot;&gt;Data enrichments&lt;/div&gt;&lt;div style=&quot;forced-color-adjust: none;&quot;&gt;&lt;br&gt;&lt;/div&gt;&lt;div style=&quot;forced-color-adjust: none;&quot;&gt;&lt;b&gt;DATA MODLE&lt;/b&gt;:&lt;/div&gt;&lt;div style=&quot;forced-color-adjust: none;&quot;&gt;NONE AS IS&amp;nbsp;&lt;/div&gt;&lt;div style=&quot;forced-color-adjust: none;&quot;&gt;&lt;br&gt;&lt;/div&gt;&lt;div style=&quot;forced-color-adjust: none;&quot;&gt;&lt;span style=&quot;background-color: transparent; color: light-dark(rgb(51, 51, 51), rgb(193, 193, 193)); white-space: pre;&quot;&gt;&#x9;&lt;/span&gt;&lt;/div&gt;&lt;div style=&quot;forced-color-adjust: none;&quot;&gt;&lt;br&gt;&lt;br&gt;&lt;/div&gt;" style="rounded=0;whiteSpace=wrap;html=1;fillColor=none;strokeColor=#666666;fontColor=#333333;" vertex="1" parent="1">
          <mxGeometry x="320" y="210" width="100" height="400" as="geometry" />
        </mxCell>
        <mxCell id="sxxJFvXYnQKyj-S9rKtp-39" value="" style="shape=link;html=1;rounded=0;fillColor=#f5f5f5;strokeColor=#666666;" edge="1" parent="1">
          <mxGeometry width="100" relative="1" as="geometry">
            <mxPoint x="320" y="334.5" as="sourcePoint" />
            <mxPoint x="420" y="334.5" as="targetPoint" />
          </mxGeometry>
        </mxCell>
        <mxCell id="sxxJFvXYnQKyj-S9rKtp-40" value="" style="shape=link;html=1;rounded=0;fillColor=#fff2cc;strokeColor=#d6b656;" edge="1" parent="1">
          <mxGeometry width="100" relative="1" as="geometry">
            <mxPoint x="430" y="334.5" as="sourcePoint" />
            <mxPoint x="530" y="334.5" as="targetPoint" />
          </mxGeometry>
        </mxCell>
        <mxCell id="sxxJFvXYnQKyj-S9rKtp-41" value="&lt;b style=&quot;text-wrap-mode: wrap; background-color: rgb(236, 236, 236);&quot;&gt;power bi and reporting&lt;/b&gt;" style="image;aspect=fixed;html=1;points=[];align=center;fontSize=12;image=img/lib/azure2/power_platform/PowerBI.svg;" vertex="1" parent="1">
          <mxGeometry x="620" y="218.5" width="31.13" height="41.5" as="geometry" />
        </mxCell>
        <mxCell id="sxxJFvXYnQKyj-S9rKtp-42" value="" style="sketch=0;outlineConnect=0;fontColor=#232F3E;gradientColor=none;fillColor=#7AA116;strokeColor=none;dashed=0;verticalLabelPosition=bottom;verticalAlign=top;align=center;html=1;fontSize=12;fontStyle=0;aspect=fixed;pointerEvents=1;shape=mxgraph.aws4.backup_compliance_reporting;" vertex="1" parent="1">
          <mxGeometry x="660" y="218.5" width="36.92" height="45" as="geometry" />
        </mxCell>
        <mxCell id="sxxJFvXYnQKyj-S9rKtp-43" value="" style="points=[];aspect=fixed;html=1;align=center;shadow=0;dashed=0;fillColor=#FF6A00;strokeColor=none;shape=mxgraph.alibaba_cloud.machine_learning;" vertex="1" parent="1">
          <mxGeometry x="636" y="368" width="49.8" height="50.099999999999994" as="geometry" />
        </mxCell>
        <mxCell id="sxxJFvXYnQKyj-S9rKtp-45" value="" style="edgeStyle=orthogonalEdgeStyle;rounded=0;orthogonalLoop=1;jettySize=auto;html=1;" edge="1" parent="1" source="sxxJFvXYnQKyj-S9rKtp-44" target="sxxJFvXYnQKyj-S9rKtp-6">
          <mxGeometry relative="1" as="geometry" />
        </mxCell>
        <mxCell id="sxxJFvXYnQKyj-S9rKtp-44" value="" style="image;aspect=fixed;perimeter=ellipsePerimeter;html=1;align=center;shadow=0;dashed=0;spacingTop=3;image=img/lib/active_directory/sql_server.svg;" vertex="1" parent="1">
          <mxGeometry x="180" y="110" width="38.5" height="50" as="geometry" />
        </mxCell>
      </root>
    </mxGraphModel>
  </diagram>
</mxfile>
